<mxfile host="Electron" agent="Mozilla/5.0 (Windows NT 10.0; Win64; x64) AppleWebKit/537.36 (KHTML, like Gecko) draw.io/24.7.5 Chrome/126.0.6478.183 Electron/31.3.0 Safari/537.36" version="24.7.5" pages="3">
  <diagram name="Page-1" id="12e1b939-464a-85fe-373e-61e167be1490">
    <mxGraphModel dx="1884" dy="1102" grid="1" gridSize="10" guides="1" tooltips="1" connect="1" arrows="1" fold="1" page="1" pageScale="1.5" pageWidth="1169" pageHeight="826" background="none" math="0" shadow="0">
      <root>
        <mxCell id="0" />
        <mxCell id="1" parent="0" />
        <mxCell id="60da8b9f42644d3a-38" value="&lt;font style=&quot;font-size: 24px;&quot;&gt;1. 啟動&lt;/font&gt;" style="ellipse;whiteSpace=wrap;html=1;rounded=0;shadow=0;strokeWidth=6;fontSize=14;align=center;fillColor=#BF639A;strokeColor=#3333FF;fontColor=#000000;textShadow=1;" parent="1" vertex="1">
          <mxGeometry x="780" y="110" width="115" height="115" as="geometry" />
        </mxCell>
        <mxCell id="jqPnm7Xu5AkMlS2J6WWk-1" value="&lt;font style=&quot;font-size: 24px;&quot;&gt;2. 規劃&lt;/font&gt;" style="ellipse;whiteSpace=wrap;html=1;rounded=0;shadow=0;strokeWidth=6;fontSize=14;align=center;fillColor=#BF639A;strokeColor=#3333FF;fontColor=#000000;textShadow=1;" parent="1" vertex="1">
          <mxGeometry x="1045" y="310" width="115" height="115" as="geometry" />
        </mxCell>
        <mxCell id="jqPnm7Xu5AkMlS2J6WWk-2" value="&lt;font style=&quot;font-size: 24px;&quot;&gt;3. 執行&lt;/font&gt;" style="ellipse;whiteSpace=wrap;html=1;rounded=0;shadow=0;strokeWidth=6;fontSize=14;align=center;fillColor=#BF639A;strokeColor=#3333FF;fontColor=#000000;textShadow=1;" parent="1" vertex="1">
          <mxGeometry x="930" y="600" width="115" height="115" as="geometry" />
        </mxCell>
        <mxCell id="jqPnm7Xu5AkMlS2J6WWk-3" value="&lt;font style=&quot;font-size: 24px;&quot;&gt;4.&amp;nbsp;監控&lt;br&gt;&amp;nbsp; &amp;nbsp; 控制&lt;/font&gt;" style="ellipse;whiteSpace=wrap;html=1;rounded=0;shadow=0;strokeWidth=6;fontSize=14;align=center;fillColor=#BF639A;strokeColor=#3333FF;fontColor=#000000;textShadow=1;" parent="1" vertex="1">
          <mxGeometry x="640" y="600" width="115" height="115" as="geometry" />
        </mxCell>
        <mxCell id="jqPnm7Xu5AkMlS2J6WWk-4" value="&lt;font style=&quot;font-size: 24px;&quot;&gt;5. 結案&lt;/font&gt;" style="ellipse;whiteSpace=wrap;html=1;rounded=0;shadow=0;strokeWidth=6;fontSize=14;align=center;fillColor=#BF639A;strokeColor=#3333FF;fontColor=#000000;textShadow=1;" parent="1" vertex="1">
          <mxGeometry x="520" y="310" width="115" height="115" as="geometry" />
        </mxCell>
        <mxCell id="jqPnm7Xu5AkMlS2J6WWk-5" value="" style="shape=flexArrow;endArrow=classic;html=1;rounded=0;fontColor=#000000;textShadow=1;strokeColor=#3333FF;fillColor=#000000;" parent="1" edge="1">
          <mxGeometry width="50" height="50" relative="1" as="geometry">
            <mxPoint x="910" y="190" as="sourcePoint" />
            <mxPoint x="1030" y="310" as="targetPoint" />
          </mxGeometry>
        </mxCell>
        <mxCell id="jqPnm7Xu5AkMlS2J6WWk-6" value="" style="shape=flexArrow;endArrow=classic;html=1;rounded=0;fontColor=#000000;textShadow=1;strokeColor=#3333FF;fillColor=#000000;" parent="1" edge="1">
          <mxGeometry width="50" height="50" relative="1" as="geometry">
            <mxPoint x="1100" y="450" as="sourcePoint" />
            <mxPoint x="1020" y="590" as="targetPoint" />
          </mxGeometry>
        </mxCell>
        <mxCell id="jqPnm7Xu5AkMlS2J6WWk-7" value="" style="shape=flexArrow;endArrow=classic;html=1;rounded=0;fontColor=#000000;textShadow=1;strokeColor=#3333FF;fillColor=#000000;" parent="1" edge="1">
          <mxGeometry width="50" height="50" relative="1" as="geometry">
            <mxPoint x="670" y="587.5" as="sourcePoint" />
            <mxPoint x="600" y="440" as="targetPoint" />
          </mxGeometry>
        </mxCell>
        <mxCell id="jqPnm7Xu5AkMlS2J6WWk-8" value="" style="shape=flexArrow;endArrow=classic;html=1;rounded=0;fontColor=#000000;textShadow=1;strokeColor=#3333FF;fillColor=#000000;" parent="1" edge="1">
          <mxGeometry width="50" height="50" relative="1" as="geometry">
            <mxPoint x="920" y="660" as="sourcePoint" />
            <mxPoint x="760" y="660" as="targetPoint" />
          </mxGeometry>
        </mxCell>
        <mxCell id="jqPnm7Xu5AkMlS2J6WWk-9" value="" style="shape=flexArrow;endArrow=classic;html=1;rounded=0;fontColor=#000000;textShadow=1;strokeColor=#3333FF;fillColor=#000000;" parent="1" edge="1">
          <mxGeometry width="50" height="50" relative="1" as="geometry">
            <mxPoint x="620" y="300" as="sourcePoint" />
            <mxPoint x="760" y="200" as="targetPoint" />
          </mxGeometry>
        </mxCell>
      </root>
    </mxGraphModel>
  </diagram>
  <diagram id="HT3ffnvvzjYP_NwgBtAB" name="第 2 页">
    <mxGraphModel dx="1213" dy="730" grid="1" gridSize="10" guides="1" tooltips="1" connect="1" arrows="1" fold="1" page="1" pageScale="1" pageWidth="827" pageHeight="1169" math="0" shadow="0">
      <root>
        <mxCell id="0" />
        <mxCell id="1" parent="0" />
        <mxCell id="THbToyu8f8Eens_3QyaV-3" value="" style="verticalLabelPosition=bottom;shadow=0;dashed=0;align=center;html=1;verticalAlign=top;strokeWidth=1;shape=mxgraph.mockup.graphics.pieChart;strokeColor=#008cff;parts=10,20,35;partColors=#e0e0e0,#d0d0d0,#c0c0c0,#b0b0b0,#a0a0a0;strokeWidth=2;" vertex="1" parent="1">
          <mxGeometry x="300" y="200" width="200" height="200" as="geometry" />
        </mxCell>
        <mxCell id="THbToyu8f8Eens_3QyaV-6" value="成本" style="text;whiteSpace=wrap;html=1;fontStyle=1;fontSize=24;fontColor=#000000;" vertex="1" parent="1">
          <mxGeometry x="343" y="219" width="60" height="40" as="geometry" />
        </mxCell>
        <mxCell id="THbToyu8f8Eens_3QyaV-7" value="時間" style="text;whiteSpace=wrap;html=1;fontStyle=1;fontSize=24;fontColor=#000000;" vertex="1" parent="1">
          <mxGeometry x="420" y="280" width="60" height="40" as="geometry" />
        </mxCell>
        <mxCell id="THbToyu8f8Eens_3QyaV-8" value="範疇" style="text;whiteSpace=wrap;html=1;fontStyle=1;fontSize=24;fontColor=#000000;" vertex="1" parent="1">
          <mxGeometry x="320" y="300" width="60" height="40" as="geometry" />
        </mxCell>
      </root>
    </mxGraphModel>
  </diagram>
  <diagram id="5rarXDXTpJxWq03DAsxP" name="第 3 页">
    <mxGraphModel dx="1036" dy="606" grid="1" gridSize="10" guides="1" tooltips="1" connect="1" arrows="1" fold="1" page="1" pageScale="1" pageWidth="827" pageHeight="1169" math="0" shadow="0">
      <root>
        <mxCell id="0" />
        <mxCell id="1" parent="0" />
        <mxCell id="cKnZr8dhRjpjAvsusz3b-14" value="管理者" style="rounded=0;whiteSpace=wrap;html=1;strokeWidth=3;fontStyle=1;fontSize=20;strokeColor=#3333FF;" parent="1" vertex="1">
          <mxGeometry x="320" y="80" width="120" height="40" as="geometry" />
        </mxCell>
        <mxCell id="cKnZr8dhRjpjAvsusz3b-26" style="edgeStyle=orthogonalEdgeStyle;rounded=0;orthogonalLoop=1;jettySize=auto;html=1;exitX=0.5;exitY=1;exitDx=0;exitDy=0;entryX=0.5;entryY=0;entryDx=0;entryDy=0;endArrow=none;startFill=0;fillColor=#6a00ff;strokeColor=#3700CC;strokeWidth=3;" parent="1" source="cKnZr8dhRjpjAvsusz3b-16" target="cKnZr8dhRjpjAvsusz3b-18" edge="1">
          <mxGeometry relative="1" as="geometry" />
        </mxCell>
        <mxCell id="cKnZr8dhRjpjAvsusz3b-16" value="專案經理A" style="rounded=0;whiteSpace=wrap;html=1;strokeWidth=3;fontStyle=1;fontSize=20;strokeColor=#3333FF;" parent="1" vertex="1">
          <mxGeometry x="160" y="160" width="120" height="40" as="geometry" />
        </mxCell>
        <mxCell id="cKnZr8dhRjpjAvsusz3b-31" style="edgeStyle=orthogonalEdgeStyle;rounded=0;orthogonalLoop=1;jettySize=auto;html=1;entryX=0.5;entryY=0;entryDx=0;entryDy=0;endArrow=none;startFill=0;fillColor=#6a00ff;strokeColor=#3700CC;strokeWidth=3;" parent="1" source="cKnZr8dhRjpjAvsusz3b-17" target="cKnZr8dhRjpjAvsusz3b-22" edge="1">
          <mxGeometry relative="1" as="geometry" />
        </mxCell>
        <mxCell id="cKnZr8dhRjpjAvsusz3b-17" value="專案經理B" style="rounded=0;whiteSpace=wrap;html=1;strokeWidth=3;fontStyle=1;fontSize=20;strokeColor=#3333FF;" parent="1" vertex="1">
          <mxGeometry x="480" y="160" width="120" height="40" as="geometry" />
        </mxCell>
        <mxCell id="cKnZr8dhRjpjAvsusz3b-18" value="開發工程師&lt;br&gt;前端" style="rounded=0;whiteSpace=wrap;html=1;strokeWidth=3;fontStyle=1;fontSize=20;strokeColor=#3333FF;" parent="1" vertex="1">
          <mxGeometry x="80" y="280" width="120" height="80" as="geometry" />
        </mxCell>
        <mxCell id="cKnZr8dhRjpjAvsusz3b-19" value="品質工程師&lt;br&gt;前端" style="rounded=0;whiteSpace=wrap;html=1;strokeWidth=3;fontStyle=1;fontSize=20;strokeColor=#3333FF;" parent="1" vertex="1">
          <mxGeometry x="240" y="280" width="120" height="80" as="geometry" />
        </mxCell>
        <mxCell id="cKnZr8dhRjpjAvsusz3b-22" value="開發工程師&lt;br&gt;後端" style="rounded=0;whiteSpace=wrap;html=1;strokeWidth=3;fontStyle=1;fontSize=20;strokeColor=#3333FF;" parent="1" vertex="1">
          <mxGeometry x="400" y="280" width="120" height="80" as="geometry" />
        </mxCell>
        <mxCell id="cKnZr8dhRjpjAvsusz3b-23" value="品質工程師&lt;br&gt;後端" style="rounded=0;whiteSpace=wrap;html=1;strokeWidth=3;fontStyle=1;fontSize=20;strokeColor=#3333FF;" parent="1" vertex="1">
          <mxGeometry x="560" y="280" width="120" height="80" as="geometry" />
        </mxCell>
        <mxCell id="cKnZr8dhRjpjAvsusz3b-24" value="" style="endArrow=none;html=1;rounded=0;entryX=0.5;entryY=1;entryDx=0;entryDy=0;exitX=0.5;exitY=0;exitDx=0;exitDy=0;fillColor=#6a00ff;strokeColor=#3700CC;strokeWidth=3;" parent="1" source="cKnZr8dhRjpjAvsusz3b-16" target="cKnZr8dhRjpjAvsusz3b-14" edge="1">
          <mxGeometry width="50" height="50" relative="1" as="geometry">
            <mxPoint x="390" y="200" as="sourcePoint" />
            <mxPoint x="440" y="150" as="targetPoint" />
            <Array as="points">
              <mxPoint x="220" y="140" />
              <mxPoint x="380" y="140" />
            </Array>
          </mxGeometry>
        </mxCell>
        <mxCell id="cKnZr8dhRjpjAvsusz3b-25" value="" style="endArrow=none;html=1;rounded=0;exitX=0.5;exitY=0;exitDx=0;exitDy=0;fillColor=#6a00ff;strokeColor=#3700CC;strokeWidth=3;" parent="1" source="cKnZr8dhRjpjAvsusz3b-17" edge="1">
          <mxGeometry width="50" height="50" relative="1" as="geometry">
            <mxPoint x="230" y="170" as="sourcePoint" />
            <mxPoint x="380" y="120" as="targetPoint" />
            <Array as="points">
              <mxPoint x="540" y="140" />
              <mxPoint x="380" y="140" />
            </Array>
          </mxGeometry>
        </mxCell>
        <mxCell id="cKnZr8dhRjpjAvsusz3b-28" style="edgeStyle=orthogonalEdgeStyle;rounded=0;orthogonalLoop=1;jettySize=auto;html=1;exitX=0.5;exitY=1;exitDx=0;exitDy=0;entryX=0.5;entryY=0;entryDx=0;entryDy=0;endArrow=none;startFill=0;fillColor=#6a00ff;strokeColor=#3700CC;strokeWidth=3;" parent="1" source="cKnZr8dhRjpjAvsusz3b-16" target="cKnZr8dhRjpjAvsusz3b-19" edge="1">
          <mxGeometry relative="1" as="geometry">
            <mxPoint x="460" y="210" as="sourcePoint" />
            <mxPoint x="380" y="290" as="targetPoint" />
            <Array as="points">
              <mxPoint x="220" y="240" />
              <mxPoint x="300" y="240" />
            </Array>
          </mxGeometry>
        </mxCell>
        <mxCell id="cKnZr8dhRjpjAvsusz3b-29" style="edgeStyle=orthogonalEdgeStyle;rounded=0;orthogonalLoop=1;jettySize=auto;html=1;exitX=0.5;exitY=1;exitDx=0;exitDy=0;entryX=0.5;entryY=0;entryDx=0;entryDy=0;endArrow=none;startFill=0;fillColor=#6a00ff;strokeColor=#3700CC;strokeWidth=3;" parent="1" edge="1">
          <mxGeometry relative="1" as="geometry">
            <mxPoint x="540" y="200" as="sourcePoint" />
            <mxPoint x="620" y="280" as="targetPoint" />
            <Array as="points">
              <mxPoint x="540" y="240" />
              <mxPoint x="620" y="240" />
            </Array>
          </mxGeometry>
        </mxCell>
      </root>
    </mxGraphModel>
  </diagram>
</mxfile>
